<?xml version="1.0" standalone="no"?><svg xmlns="http://www.w3.org/2000/svg" viewBox="0 0 1440 320"><path fill="#10644D" fill-opacity="1" d="M0,288L20,293.3C40,299,80,309,120,304C160,299,200,277,240,261.3C280,245,320,235,360,224C400,213,440,203,480,197.3C520,192,560,192,600,165.3C640,139,680,85,720,85.3C760,85,800,139,840,144C880,149,920,107,960,80C1000,53,1040,43,1080,74.7C1120,107,1160,181,1200,208C1240,235,1280,213,1320,213.3C1360,213,1400,235,1420,245.3L1440,256L1440,320L1420,320C1400,320,1360,320,1320,320C1280,320,1240,320,1200,320C1160,320,1120,320,1080,320C1040,320,1000,320,960,320C920,320,880,320,840,320C800,320,760,320,720,320C680,320,640,320,600,320C560,320,520,320,480,320C440,320,400,320,360,320C320,320,280,320,240,320C200,320,160,320,120,320C80,320,40,320,20,320L0,320Z"></path></svg>